<svg width="28" height="28" viewBox="0 0 28 28" fill="none" xmlns="http://www.w3.org/2000/svg">
<path fill-rule="evenodd" clip-rule="evenodd" d="M14.0002 15C17.3139 15 20.0002 12.3137 20.0002 9C20.0002 5.68629 17.3139 3 14.0002 3C10.6864 3 8.00015 5.68629 8.00015 9C8.00015 12.3137 10.6864 15 14.0002 15ZM5.85725 23.5151C7.4739 20.8253 10.5073 19 14.0002 19C17.493 19 20.5264 20.8253 22.143 23.5151C22.4276 23.9885 23.0419 24.1416 23.5153 23.8571C23.9887 23.5726 24.1418 22.9582 23.8573 22.4849C21.8809 19.1966 18.1988 17 14.0002 17C9.80149 17 6.11935 19.1966 4.14305 22.4849C3.85854 22.9582 4.01164 23.5726 4.48501 23.8571C4.95837 24.1416 5.57275 23.9885 5.85725 23.5151Z" fill="white"/>
</svg>
